<svg viewBox="-889 -508.5 1778 1017" width="1778" height="1017" style="background-color: rgb(255, 255, 255);" xmlns="http://www.w3.org/2000/svg"><path d="M-111.03775855490191,-122.7567321319104L-111.0377585549019,-13.081461145984301M-111.0377585549019,-13.081461145984301L-171.96629461353658,-12.68480448208424M-111.0377585549019,-13.081461145984301L-109.57365932524013,124.19295552894712M-207.12877681327348,-122.46284300685195L-207.12877681327348,-12.492970093257073M-207.12877681327348,-12.492970093257073L-268.05731287190815,-12.09631342935701M-207.12877681327348,-12.492970093257073L-205.66074482418944,125.150183375379M-171.96629461353658,-122.36007546801034L-171.96629461353658,-12.68480448208424M-171.96629461353658,-12.68480448208424L-170.5021953838748,124.58961219284718M-268.05731287190815,-122.0661863429519L-268.05731287190815,-12.09631342935701M-268.05731287190815,-12.09631342935701L-266.58928088282414,125.54684003927906M-14.84716642229651,-106.25549108884896L-14.847166422296498,-11.792925146090468M-14.847166422296498,-11.792925146090468L-75.77570248093117,-11.396268482190408M-14.847166422296498,-11.792925146090468L-13.586147700524526,106.44059751439532M93.43160347787423,-106.28339384307031L93.43160347787425,-12.422154740509685M93.43160347787425,-12.422154740509685L20.31736557258185,-11.946166778757258M93.43160347787425,-12.422154740509685L94.68459484620917,105.05872066889492M-75.7757024809312,-105.8588344249489L-75.77570248093117,-11.396268482190408M-75.77570248093117,-11.396268482190408L-74.5146837591592,106.83725417829538M20.317365572581835,-105.80740588131788L20.31736557258185,-11.946166778757258M20.31736557258185,-11.946166778757258L21.570356940916767,105.53470863064737M201.8079024534054,-89.86148413038791L201.8079024534054,-11.212950070994896M201.8079024534054,-11.212950070994896L128.69366454811302,-10.736962109242468M201.8079024534054,-11.212950070994896L202.85781331385056,87.22703132396408M128.693664548113,-89.38549616863547L128.69366454811302,-10.736962109242468M128.69366454811302,-10.736962109242468L129.74357540855814,87.70301928571654M322.27674208077184,-89.2333959157071L322.27674208077184,-11.839331250315078M322.27674208077184,-11.839331250315078L236.9767956224852,-11.284011947050725M322.27674208077184,-11.839331250315078L323.3099065255767,85.03050080514389M236.9767956224852,-88.67807661244277L236.9767956224852,-11.284011947050725M236.9767956224852,-11.284011947050725L238.00996006729005,85.58582010840823" style="fill:none;stroke:rgb(0,0,0);stroke-width:1;stroke-linecap:round"></path><path d="M-170.50219538387478,124.5896121928472L-171.96629461353658,-12.68480448208424L-111.03775855490188,-13.081461145984303zM-266.58928088282414,125.54684003927908L-268.05731287190815,-12.09631342935701L-207.1287768132735,-12.492970093257075zM-111.03775855490188,-13.081461145984303L-171.96629461353658,-12.68480448208424L-171.96629461353658,-122.36007546801032zM-207.1287768132735,-12.492970093257075L-268.05731287190815,-12.09631342935701L-268.05731287190815,-122.06618634295188zM21.570356940916774,105.53470863064737L20.31736557258186,-11.946166778757258L93.43160347787426,-12.422154740509685zM-74.51468375915921,106.8372541782954L-75.77570248093117,-11.396268482190408L-14.847166422296498,-11.79292514609047z" style="fill:rgb(238,238,238); fill-opacity: 0.36"></path><path d="M442.83874789922885,-72.89081753340375L442.83874789922885,-10.709457911179335M442.83874789922885,-10.709457911179335L357.5388014409422,-10.154138607914982M442.83874789922885,-10.709457911179335L443.6688318361439,67.119480129834M357.5388014409422,-72.3354982301394L357.5388014409422,-10.154138607914982M357.5388014409422,-10.154138607914982L358.3688853778573,67.67479943309836" style="fill:none;stroke:rgb(0,0,0);stroke-width:1;stroke-linecap:round"></path><path d="M93.43160347787426,-12.422154740509685L20.31736557258186,-11.946166778757258L20.31736557258185,-105.80740588131788zM-14.847166422296498,-11.79292514609047L-75.77570248093117,-11.396268482190408L-75.77570248093119,-105.85883442494888zM129.74357540855814,87.70301928571654L128.69366454811302,-10.73696210924247L201.8079024534054,-11.212950070994898zM238.00996006729005,85.58582010840824L236.9767956224852,-11.284011947050727L322.27674208077184,-11.839331250315078z" style="fill:rgb(238,238,238); fill-opacity: 0.36"></path><path d="M-110.786093089001,-31.03869350713661L-110.786093089001,-25.010801963976M-110.786093089001,-25.010801963976L-110.70562435841781,-17.466027793217535M-110.786093089001,-25.010801963976L-75.52428935080508,-21.017690224076517M-110.78609279470751,-31.038693443464954L-110.78609279470751,-25.01080242356854M-110.78609279470751,-25.01080242356854L-171.7146288533422,-24.614145759668475M-110.78609279470751,-25.01080242356854L-110.70562405713909,-17.466027597869473M-171.7146288533422,-30.64203677956489L-171.7146288533422,-24.614145759668475M-171.7146288533422,-24.614145759668475L-171.63416011577377,-17.069370933969413" style="fill:none;stroke:rgb(0,0,0);stroke-width:1;stroke-linecap:round"></path><path d="M-171.63416011577374,-17.069370933969413L-171.7146288533422,-24.614145759668467L-110.78609279470751,-25.010802423568528zM-110.78609279470751,-25.010802423568528L-171.7146288533422,-24.614145759668467L-171.7146288533422,-30.64203677956488z" style="fill:rgb(153,221,255); fill-opacity: 0.4"></path><path d="M201.8079024534054,-11.212950070994898L128.69366454811302,-10.73696210924247L128.693664548113,-89.38549616863547zM322.27674208077184,-11.839331250315078L236.9767956224852,-11.284011947050727L236.9767956224852,-88.67807661244275z" style="fill:rgb(238,238,238); fill-opacity: 0.36"></path><path d="M-110.70562405713906,-17.466027597869473L-171.63416011577374,-17.069370933969413L-110.78609279470751,-25.010802423568528zM-110.70562405713906,-17.466027597869473L-110.78609279470751,-25.010802423568528L-110.78609279470751,-31.038693443464943z" style="fill:rgb(153,221,255); fill-opacity: 0.4"></path><path d="M-110.78609371598398,-31.03869331494367L-110.78609371598398,-25.010802403873377L-110.7056249798683,-17.466027714385906z" style="fill:rgb(255,187,187); fill-opacity: 0.4"></path><path d="M-110.78609279470751,-31.038693443464943L-110.78609279470751,-25.010802423568528L-171.7146288533422,-30.64203677956488z" style="fill:rgb(153,221,255); fill-opacity: 0.4"></path><path d="M-110.70562435841781,-17.466027793217535L-110.70562435841781,-23.493919336378145M-110.70562435841781,-17.466027793217535L-75.52428935080508,-21.017690224076517M-171.63416011577377,-17.069370933969413L-110.70562405713909,-17.466027597869473M-110.70562405713909,-23.493918617765893L-110.70562405713909,-17.466027597869473M-171.63416011577377,-23.097261953865825L-171.63416011577377,-17.069370933969413M514.8698885751022,-47.10159239003962L514.8698885751022,21.35557193198753M514.8698885751022,21.35557193198753L490.498474822282,21.514234593181598M514.8698885751022,21.35557193198753L515.0729690550509,40.39646332667078M490.498474822282,-46.942929728845556L490.498474822282,21.514234593181598M490.498474822282,21.514234593181598L490.7015553022307,40.55512598786485" style="fill:none;stroke:rgb(0,0,0);stroke-width:1;stroke-linecap:round"></path><path d="M-110.7056249798683,-17.466027714385906L-110.78609371598398,-25.010802403873377L-75.52428996977292,-21.017688766329968z" style="fill:rgb(255,187,187); fill-opacity: 0.4"></path><path d="M-171.7146288533422,-24.614145759668467L-171.63416011577374,-17.069370933969413L-171.63416011577374,-23.097261953865825z" style="fill:rgb(153,221,255); fill-opacity: 0.4"></path><path d="M-110.78609371598398,-25.010802403873377L-110.78609371598398,-31.03869331494367L-75.52428996977292,-21.017688766329968z" style="fill:rgb(255,187,187); fill-opacity: 0.4"></path><path d="M-171.7146288533422,-30.64203677956488L-171.7146288533422,-24.614145759668467L-171.63416011577374,-23.097261953865825z" style="fill:rgb(153,221,255); fill-opacity: 0.4"></path><path d="M-110.786093089001,-31.03869350713661L-110.70562435841781,-23.493919336378145M-110.786093089001,-31.03869350713661L-75.52428935080508,-21.017690224076517M-110.78609279470751,-31.038693443464954L-171.7146288533422,-30.64203677956489M-110.78609279470751,-31.038693443464954L-110.70562405713909,-23.493918617765893M-171.7146288533422,-30.64203677956489L-171.63416011577377,-23.097261953865825" style="fill:none;stroke:rgb(0,0,0);stroke-width:1;stroke-linecap:round"></path><path d="M358.3688853778573,67.67479943309837L357.5388014409423,-10.154138607914984L442.8387478992289,-10.709457911179335z" style="fill:rgb(238,238,238); fill-opacity: 0.36"></path><path d="M-171.63416011577374,-17.069370933969413L-110.70562405713906,-17.466027597869473L-110.70562405713906,-23.49391861776589z" style="fill:rgb(153,221,255); fill-opacity: 0.4"></path><path d="M-110.78609371598398,-31.03869331494367L-110.7056249798683,-17.466027714385906L-110.7056249798683,-23.4939186254562z" style="fill:rgb(255,187,187); fill-opacity: 0.4"></path><path d="M-110.70562405713906,-23.49391861776589L-110.70562405713906,-17.466027597869473L-110.78609279470751,-31.038693443464943zM-110.70562405713906,-23.49391861776589L-110.78609279470751,-31.038693443464943L-171.7146288533422,-30.64203677956488z" style="fill:rgb(153,221,255); fill-opacity: 0.4"></path><path d="M-109.57365932524011,124.19295552894712L-170.50219538387478,124.5896121928472L-111.03775855490188,-13.081461145984303zM-205.6607448241895,125.15018337537902L-266.58928088282414,125.54684003927908L-207.1287768132735,-12.492970093257075z" style="fill:rgb(238,238,238); fill-opacity: 0.36"></path><path d="M-110.7056249798683,-23.4939186254562L-110.7056249798683,-17.466027714385906L-75.52428996977292,-21.017688766329968z" style="fill:rgb(255,187,187); fill-opacity: 0.4"></path><path d="M-171.63416011577374,-23.097261953865825L-171.63416011577374,-17.069370933969413L-110.70562405713906,-23.49391861776589z" style="fill:rgb(153,221,255); fill-opacity: 0.4"></path><path d="M490.7015553022307,40.55512598786485L490.498474822282,21.514234593181598L514.8698885751022,21.35557193198753z" style="fill:rgb(238,238,238); fill-opacity: 0.36"></path><path d="M-110.78609371598398,-31.03869331494367L-110.7056249798683,-23.4939186254562L-75.52428996977292,-21.017688766329968z" style="fill:rgb(255,187,187); fill-opacity: 0.4"></path><path d="M-171.63416011577374,-23.097261953865825L-110.70562405713906,-23.49391861776589L-171.7146288533422,-30.64203677956488z" style="fill:rgb(153,221,255); fill-opacity: 0.4"></path><path d="M442.8387478992289,-10.709457911179335L357.5388014409423,-10.154138607914984L357.5388014409422,-72.33549823013938z" style="fill:rgb(238,238,238); fill-opacity: 0.36"></path><path d="M-110.70562435841781,-23.493919336378145L-75.52428935080508,-21.017690224076517M-171.63416011577377,-23.097261953865825L-110.70562405713909,-23.493918617765893" style="fill:none;stroke:rgb(0,0,0);stroke-width:1;stroke-linecap:round"></path><path d="M94.68459484620917,105.05872066889494L21.570356940916774,105.53470863064737L93.43160347787426,-12.422154740509685zM-13.58614770052453,106.44059751439534L-74.51468375915921,106.8372541782954L-14.847166422296498,-11.79292514609047zM515.0729690550509,40.396463326670776L490.7015553022307,40.55512598786485L514.8698885751022,21.35557193198753zM-109.57365932524011,124.19295552894712L-111.03775855490188,-13.081461145984303L-111.0377585549019,-122.7567321319104zM-205.6607448241895,125.15018337537902L-207.1287768132735,-12.492970093257075L-207.12877681327353,-122.46284300685194z" style="fill:rgb(238,238,238); fill-opacity: 0.36"></path><path d="M490.7015553022307,40.55512598786485L515.0729690550509,40.39646332667078M515.0729690550509,-28.06070099535638L515.0729690550509,40.39646332667078M490.7015553022307,-27.90203833416231L490.7015553022307,40.55512598786485" style="fill:none;stroke:rgb(0,0,0);stroke-width:1;stroke-linecap:round"></path><path d="M323.3099065255767,85.0305008051439L238.00996006729005,85.58582010840824L322.27674208077184,-11.839331250315078zM202.85781331385053,87.2270313239641L129.74357540855814,87.70301928571654L201.8079024534054,-11.212950070994898zM94.68459484620917,105.05872066889494L93.43160347787426,-12.422154740509685L93.43160347787425,-106.2833938430703zM-13.58614770052453,106.44059751439534L-14.847166422296498,-11.79292514609047L-14.84716642229651,-106.25549108884894zM-111.0377585549019,-122.7567321319104L-111.03775855490188,-13.081461145984303L-171.96629461353658,-122.36007546801032zM-207.12877681327353,-122.46284300685194L-207.1287768132735,-12.492970093257075L-268.05731287190815,-122.06618634295188zM323.3099065255767,85.0305008051439L322.27674208077184,-11.839331250315078L322.27674208077184,-89.23339591570709zM443.6688318361439,67.119480129834L358.3688853778573,67.67479943309837L442.8387478992289,-10.709457911179335zM202.85781331385053,87.2270313239641L201.8079024534054,-11.212950070994898L201.80790245340538,-89.8614841303879zM93.43160347787425,-106.2833938430703L93.43160347787426,-12.422154740509685L20.31736557258185,-105.80740588131788zM-14.84716642229651,-106.25549108884894L-14.847166422296498,-11.79292514609047L-75.77570248093119,-105.85883442494888zM443.6688318361439,67.119480129834L442.8387478992289,-10.709457911179335L442.83874789922885,-72.89081753340375zM514.8698885751022,21.35557193198753L490.498474822282,21.514234593181598L490.498474822282,-46.942929728845556zM322.27674208077184,-89.23339591570709L322.27674208077184,-11.839331250315078L236.9767956224852,-88.67807661244275zM201.80790245340538,-89.8614841303879L201.8079024534054,-11.212950070994898L128.693664548113,-89.38549616863547z" style="fill:rgb(238,238,238); fill-opacity: 0.36"></path><path d="M574.4018199249851,-23.09164148105821L574.4018199249851,-3.429507966209956M574.4018199249851,-3.429507966209956L550.030406172165,-3.270845305015887M574.4018199249851,-3.429507966209956L574.6049004049339,15.61138342847329M550.030406172165,-22.932978819864143L550.030406172165,-3.270845305015887M550.030406172165,-3.270845305015887L550.2334866521137,15.77004608966736" style="fill:none;stroke:rgb(0,0,0);stroke-width:1;stroke-linecap:round"></path><path d="M442.83874789922885,-72.89081753340375L442.8387478992289,-10.709457911179335L357.5388014409422,-72.33549823013938zM515.0729690550509,40.396463326670776L514.8698885751022,21.35557193198753L514.8698885751022,-47.10159239003963z" style="fill:rgb(238,238,238); fill-opacity: 0.36"></path><path d="M322.5929328517109,-25.678762859324504L322.5929328517109,-19.65087183942809M322.5929328517109,-19.65087183942809L237.29298639342423,-19.095552536163733M322.5929328517109,-19.65087183942809L322.6734015892793,-12.106097013729022M322.5929417192841,-25.678762533876995L322.5929417192841,-19.65087151398058M322.5929417192841,-19.65087151398058L322.67341044986733,-12.106097343222112M322.5929417192841,-19.65087151398058L357.8251744886101,-15.820868520833079M237.29298639342423,-25.12344355606015L237.29298639342423,-19.095552536163733M237.29298639342423,-19.095552536163733L237.37345513099265,-11.550777710464669" style="fill:none;stroke:rgb(0,0,0);stroke-width:1;stroke-linecap:round"></path><path d="M550.2334866521137,15.770046089667359L550.030406172165,-3.270845305015887L574.4018199249853,-3.4295079662099566z" style="fill:rgb(238,238,238); fill-opacity: 0.36"></path><path d="M237.37345513099265,-11.55077771046467L237.29298639342423,-19.095552536163733L322.5929328517109,-19.65087183942809zM322.5929328517109,-19.65087183942809L237.29298639342423,-19.095552536163733L237.29298639342423,-25.12344355606015z" style="fill:rgb(153,221,255); fill-opacity: 0.4"></path><path d="M574.4018199249853,-3.4295079662099566L550.030406172165,-3.270845305015887L550.030406172165,-22.932978819864143zM490.498474822282,21.514234593181598L490.7015553022307,40.55512598786485L490.7015553022307,-27.90203833416231z" style="fill:rgb(238,238,238); fill-opacity: 0.36"></path><path d="M322.6734015892793,-12.106097013729022L237.37345513099265,-11.55077771046467L322.5929328517109,-19.65087183942809zM322.6734015892793,-12.106097013729022L322.5929328517109,-19.65087183942809L322.5929328517109,-25.678762859324504z" style="fill:rgb(153,221,255); fill-opacity: 0.4"></path><path d="M322.59293357353425,-25.678762741500133L322.59293357353425,-19.65087183042984L322.6734023096499,-12.106097140942362zM322.6734023096499,-12.106097140942362L322.59293357353425,-19.65087183042984L357.82516634320865,-15.820868871421077z" style="fill:rgb(255,187,187); fill-opacity: 0.4"></path><path d="M-170.5021953838748,124.58961219284718L-109.57365932524013,124.19295552894712M-109.57365932524014,14.517684543021014L-109.57365932524013,124.19295552894712" style="fill:none;stroke:rgb(0,0,0);stroke-width:1;stroke-linecap:round"></path><path d="M322.5929328517109,-25.678762859324504L322.5929328517109,-19.65087183942809L237.29298639342423,-25.12344355606015z" style="fill:rgb(153,221,255); fill-opacity: 0.4"></path><path d="M-170.50219538387483,14.914341206921076L-170.5021953838748,124.58961219284718" style="fill:none;stroke:rgb(0,0,0);stroke-width:1;stroke-linecap:round"></path><path d="M322.59293357353425,-19.65087183042984L322.59293357353425,-25.678762741500133L357.82516634320865,-15.820868871421077z" style="fill:rgb(255,187,187); fill-opacity: 0.4"></path><path d="M-266.58928088282414,125.54684003927906L-205.66074482418944,125.150183375379M-205.66074482418946,15.18031046178413L-205.66074482418944,125.150183375379" style="fill:none;stroke:rgb(0,0,0);stroke-width:1;stroke-linecap:round"></path><path d="M574.604900404934,15.611383428473289L550.2334866521137,15.770046089667359L574.4018199249853,-3.4295079662099566z" style="fill:rgb(238,238,238); fill-opacity: 0.36"></path><path d="M-266.58928088282414,15.576967125684192L-266.58928088282414,125.54684003927906M21.570356940916767,105.53470863064737L94.68459484620917,105.05872066889492M94.68459484620915,11.1974815663343L94.68459484620917,105.05872066889492M322.67341044986733,-12.106097343222112L322.67341044986733,-18.13398836311853M322.67341044986733,-12.106097343222112L357.8251744886101,-15.820868520833079M237.37345513099265,-11.550777710464669L322.6734015892793,-12.106097013729022M322.6734015892793,-18.13398803362544L322.6734015892793,-12.106097013729022M21.570356940916753,11.673469528086727L21.570356940916767,105.53470863064737M-74.5146837591592,106.83725417829538L-13.586147700524526,106.44059751439532M-13.586147700524538,11.978031571636837L-13.586147700524526,106.44059751439532M237.37345513099265,-17.578668730361084L237.37345513099265,-11.550777710464669M-74.51468375915923,12.3746882355369L-74.5146837591592,106.83725417829538M238.00996006729005,85.58582010840823L323.3099065255767,85.03050080514389M323.3099065255767,7.636436139751857L323.3099065255767,85.03050080514389" style="fill:none;stroke:rgb(0,0,0);stroke-width:1;stroke-linecap:round"></path><path d="M237.29298639342423,-19.095552536163733L237.37345513099265,-11.55077771046467L237.37345513099265,-17.578668730361084z" style="fill:rgb(153,221,255); fill-opacity: 0.4"></path><path d="M238.00996006729005,8.191755443016211L238.00996006729005,85.58582010840823M129.74357540855814,87.70301928571654L202.85781331385056,87.22703132396408M202.85781331385053,8.578497264571078L202.85781331385056,87.22703132396408" style="fill:none;stroke:rgb(0,0,0);stroke-width:1;stroke-linecap:round"></path><path d="M237.29298639342423,-25.12344355606015L237.29298639342423,-19.095552536163733L237.37345513099265,-17.578668730361084z" style="fill:rgb(153,221,255); fill-opacity: 0.4"></path><path d="M322.5929328517109,-25.678762859324504L237.29298639342423,-25.12344355606015M322.5929328517109,-25.678762859324504L322.6734015892793,-18.13398803362544M322.5929417192841,-25.678762533876995L322.67341044986733,-18.13398836311853M322.5929417192841,-25.678762533876995L357.8251744886101,-15.820868520833079M129.74357540855814,9.054485226323507L129.74357540855814,87.70301928571654M237.29298639342423,-25.12344355606015L237.37345513099265,-17.578668730361084M358.3688853778573,67.67479943309836L443.6688318361439,67.119480129834M443.6688318361439,4.93812050760959L443.6688318361439,67.119480129834M322.67341044986733,-18.13398836311853L357.8251744886101,-15.820868520833079M358.3688853778573,5.4934398108739435L358.3688853778573,67.67479943309836" style="fill:none;stroke:rgb(0,0,0);stroke-width:1;stroke-linecap:round"></path><path d="M574.604900404934,15.611383428473289L574.4018199249853,-3.4295079662099566L574.4018199249853,-23.09164148105821z" style="fill:rgb(238,238,238); fill-opacity: 0.36"></path><path d="M237.37345513099265,-11.55077771046467L322.6734015892793,-12.106097013729022L322.6734015892793,-18.13398803362544z" style="fill:rgb(153,221,255); fill-opacity: 0.4"></path><path d="M490.7015553022307,40.55512598786485L515.0729690550509,40.396463326670776L515.0729690550509,-28.06070099535638z" style="fill:rgb(238,238,238); fill-opacity: 0.36"></path><path d="M322.59293357353425,-25.678762741500133L322.6734023096499,-12.106097140942362L322.6734023096499,-18.133988052012654z" style="fill:rgb(255,187,187); fill-opacity: 0.4"></path><path d="M322.6734015892793,-18.13398803362544L322.6734015892793,-12.106097013729022L322.5929328517109,-25.678762859324504z" style="fill:rgb(153,221,255); fill-opacity: 0.4"></path><path d="M322.6734023096499,-18.133988052012654L322.6734023096499,-12.106097140942362L357.82516634320865,-15.820868871421077z" style="fill:rgb(255,187,187); fill-opacity: 0.4"></path><path d="M322.6734015892793,-18.13398803362544L322.5929328517109,-25.678762859324504L237.29298639342423,-25.12344355606015z" style="fill:rgb(153,221,255); fill-opacity: 0.4"></path><path d="M322.59293357353425,-25.678762741500133L322.6734023096499,-18.133988052012654L357.82516634320865,-15.820868871421077z" style="fill:rgb(255,187,187); fill-opacity: 0.4"></path><path d="M550.2334866521137,15.77004608966736L574.6049004049339,15.61138342847329M574.6049004049339,-4.050750086374964L574.6049004049339,15.61138342847329M550.2334866521137,-3.892087425180895L550.2334866521137,15.77004608966736" style="fill:none;stroke:rgb(0,0,0);stroke-width:1;stroke-linecap:round"></path><path d="M237.37345513099265,-17.578668730361084L237.37345513099265,-11.55077771046467L322.6734015892793,-18.13398803362544z" style="fill:rgb(153,221,255); fill-opacity: 0.4"></path><path d="M574.4018199249853,-23.09164148105821L574.4018199249853,-3.4295079662099566L550.030406172165,-22.932978819864143z" style="fill:rgb(238,238,238); fill-opacity: 0.36"></path><path d="M237.37345513099265,-17.578668730361084L322.6734015892793,-18.13398803362544L237.29298639342423,-25.12344355606015z" style="fill:rgb(153,221,255); fill-opacity: 0.4"></path><path d="M536.6189175591239,-5.911674013547002L536.6537480077449,-0.7503092817987875L536.6537480077449,-3.4937206623405705zM477.08698620924093,-5.524109518938966L477.1218166578618,-0.362744787190752L477.1218166578618,-3.106156167732535z" style="fill:rgb(0,0,0)"></path><path d="M237.37345513099265,-17.578668730361084L322.6734015892793,-18.13398803362544" style="fill:none;stroke:rgb(0,0,0);stroke-width:1;stroke-linecap:round"></path><path d="M236.9767956224852,-11.284011947050727L238.00996006729005,85.58582010840824L238.00996006729005,8.19175544301621zM357.5388014409423,-10.154138607914984L358.3688853778573,67.67479943309837L358.3688853778572,5.493439810873942zM550.030406172165,-3.270845305015887L550.2334866521137,15.770046089667359L550.2334866521137,-3.892087425180895zM20.31736557258186,-11.946166778757258L21.570356940916774,105.53470863064737L21.57035694091676,11.673469528086727zM128.69366454811302,-10.73696210924247L129.74357540855814,87.70301928571654L129.74357540855812,9.054485226323505zM-171.96629461353658,-12.68480448208424L-170.50219538387478,124.5896121928472L-170.5021953838748,14.914341206921076z" style="fill:rgb(238,238,238); fill-opacity: 0.36"></path><path d="M536.6322216074947,-7.731509354724664L536.6189175591239,-5.911674013547002L536.6537480077449,-3.4937206623405705z" style="fill:rgb(0,0,0)"></path><path d="M-75.77570248093117,-11.396268482190408L-74.51468375915921,106.8372541782954L-74.51468375915923,12.3746882355369z" style="fill:rgb(238,238,238); fill-opacity: 0.36"></path><path d="M536.6537480077449,-0.7503092817987866L536.6885784563657,0.6197542121976155L536.6537480077449,-3.4937206623405705zM477.1002902576117,-7.343944860116629L477.08698620924093,-5.524109518938966L477.1218166578618,-3.106156167732535z" style="fill:rgb(0,0,0)"></path><path d="M-268.05731287190815,-12.09631342935701L-266.58928088282414,125.54684003927908L-266.58928088282414,15.576967125684192z" style="fill:rgb(238,238,238); fill-opacity: 0.36"></path><path d="M477.1218166578618,-0.3627447871907511L477.1566471064827,1.0073187068056513L477.1218166578618,-3.106156167732535z" style="fill:rgb(0,0,0)"></path><path d="M516.7294546647937,-3.3640096231589323L536.653748007745,-3.4937206623405705M457.19752331491065,-2.976445128550897L477.1218166578618,-3.1061561677325353" style="fill:none;stroke:rgb(0,0,0);stroke-width:1;stroke-linecap:round"></path><path d="M550.030406172165,-22.932978819864143L550.030406172165,-3.270845305015887L550.2334866521137,-3.892087425180895z" style="fill:rgb(238,238,238); fill-opacity: 0.36"></path><path d="M536.6322216074947,-7.731509354724664L536.675274407995,-3.6948648738300154L548.3739205624221,-3.570021273623887zM536.675274407995,-3.6948648738300154L536.6322216074947,-7.731509354724664L536.6537480077449,-3.4937206623405705zM536.675274407995,-3.6948648738300154L536.6885784563657,0.6197542121976155L548.3739205624221,-3.570021273623887zM536.6885784563657,0.6197542121976155L536.675274407995,-3.6948648738300154L536.6537480077449,-3.4937206623405705zM477.1002902576117,-7.343944860116629L477.14334305811195,-3.3073003792219797L488.84198921253903,-3.182456779015852zM477.14334305811195,-3.3073003792219797L477.1002902576117,-7.343944860116629L477.1218166578618,-3.106156167732535zM477.14334305811195,-3.3073003792219797L477.1566471064827,1.0073187068056513L488.84198921253903,-3.182456779015852zM477.1566471064827,1.0073187068056513L477.14334305811195,-3.3073003792219797L477.1218166578618,-3.106156167732535z" style="fill:rgb(0,0,0)"></path><path d="M550.2334866521137,15.770046089667359L574.604900404934,15.611383428473289L574.604900404934,-4.050750086374965zM357.5388014409422,-72.33549823013938L357.5388014409423,-10.154138607914984L358.3688853778572,5.493439810873942z" style="fill:rgb(238,238,238); fill-opacity: 0.36"></path><path d="M574.4018199249851,-23.09164148105821L550.030406172165,-22.932978819864143M574.4018199249851,-23.09164148105821L574.6049004049339,-4.050750086374964M550.030406172165,-22.932978819864143L550.2334866521137,-3.892087425180895" style="fill:none;stroke:rgb(0,0,0);stroke-width:1;stroke-linecap:round"></path><path d="M236.9767956224852,-88.67807661244275L236.9767956224852,-11.284011947050727L238.00996006729005,8.19175544301621zM128.693664548113,-89.38549616863547L128.69366454811302,-10.73696210924247L129.74357540855812,9.054485226323505zM574.604900404934,-4.050750086374965L574.604900404934,15.611383428473289L574.4018199249853,-23.09164148105821zM20.31736557258185,-105.80740588131788L20.31736557258186,-11.946166778757258L21.57035694091676,11.673469528086727zM514.8698885751022,-47.10159239003963L514.8698885751022,21.35557193198753L490.498474822282,-46.942929728845556zM-75.77570248093119,-105.85883442494888L-75.77570248093117,-11.396268482190408L-74.51468375915923,12.3746882355369zM-171.96629461353658,-122.36007546801032L-171.96629461353658,-12.68480448208424L-170.5021953838748,14.914341206921076z" style="fill:rgb(238,238,238); fill-opacity: 0.36"></path><path d="M442.83874789922885,-72.89081753340375L357.5388014409422,-72.3354982301394M442.83874789922885,-72.89081753340375L443.6688318361439,4.93812050760959M357.5388014409422,-72.3354982301394L358.3688853778573,5.4934398108739435" style="fill:none;stroke:rgb(0,0,0);stroke-width:1;stroke-linecap:round"></path><path d="M-268.05731287190815,-122.06618634295188L-268.05731287190815,-12.09631342935701L-266.58928088282414,15.576967125684192zM574.604900404934,-4.050750086374965L574.4018199249853,-23.09164148105821L550.030406172165,-22.932978819864143z" style="fill:rgb(238,238,238); fill-opacity: 0.36"></path><path d="M322.27674208077184,-89.2333959157071L236.9767956224852,-88.67807661244277M322.27674208077184,-89.2333959157071L323.3099065255767,7.636436139751857M236.9767956224852,-88.67807661244277L238.00996006729005,8.191755443016211" style="fill:none;stroke:rgb(0,0,0);stroke-width:1;stroke-linecap:round"></path><path d="M550.2334866521137,-3.892087425180895L550.2334866521137,15.770046089667359L574.604900404934,-4.050750086374965z" style="fill:rgb(238,238,238); fill-opacity: 0.36"></path><path d="M201.8079024534054,-89.86148413038791L128.693664548113,-89.38549616863547M201.8079024534054,-89.86148413038791L202.85781331385053,8.578497264571078" style="fill:none;stroke:rgb(0,0,0);stroke-width:1;stroke-linecap:round"></path><path d="M490.498474822282,-46.942929728845556L490.498474822282,21.514234593181598L490.7015553022307,-27.90203833416231z" style="fill:rgb(238,238,238); fill-opacity: 0.36"></path><path d="M128.693664548113,-89.38549616863547L129.74357540855814,9.054485226323507M93.43160347787423,-106.28339384307031L20.317365572581835,-105.80740588131788M93.43160347787423,-106.28339384307031L94.68459484620915,11.1974815663343M20.317365572581835,-105.80740588131788L21.570356940916753,11.673469528086727" style="fill:none;stroke:rgb(0,0,0);stroke-width:1;stroke-linecap:round"></path><path d="M550.2334866521137,-3.892087425180895L574.604900404934,-4.050750086374965L550.030406172165,-22.932978819864143z" style="fill:rgb(238,238,238); fill-opacity: 0.36"></path><path d="M-14.84716642229651,-106.25549108884896L-75.7757024809312,-105.8588344249489M-14.84716642229651,-106.25549108884896L-13.586147700524538,11.978031571636837M-75.7757024809312,-105.8588344249489L-74.51468375915923,12.3746882355369" style="fill:none;stroke:rgb(0,0,0);stroke-width:1;stroke-linecap:round"></path><path d="M515.0729690550509,-28.06070099535638L515.0729690550509,40.396463326670776L514.8698885751022,-47.10159239003963z" style="fill:rgb(238,238,238); fill-opacity: 0.36"></path><path d="M-111.03775855490191,-122.7567321319104L-171.96629461353658,-122.36007546801034M-111.03775855490191,-122.7567321319104L-109.57365932524014,14.517684543021014M-171.96629461353658,-122.36007546801034L-170.50219538387483,14.914341206921076M-207.12877681327348,-122.46284300685195L-268.05731287190815,-122.0661863429519M-207.12877681327348,-122.46284300685195L-205.66074482418946,15.18031046178413M-14.281238850700966,-27.787407143200966L-14.281238850700966,-21.759516123304543M-14.281238850700966,-21.759516123304543L-75.20977490933564,-21.362859459404483M-14.281238850700966,-21.759516123304543L-14.200770113132519,-14.214741297605483M-14.281238972977022,-27.787407105447375L-14.281238972977022,-21.759516608815154M-14.281238972977022,-21.759516608815154L-14.200770237154886,-14.214741946851243M-14.281238972977022,-21.759516608815154L20.919668050619034,-21.09569842115922M-268.05731287190815,-122.0661863429519L-266.58928088282414,15.576967125684192M-75.20977490933564,-27.3907504793009L-75.20977490933564,-21.362859459404483M-75.20977490933564,-21.362859459404483L-75.12930617176721,-13.81808463370542" style="fill:none;stroke:rgb(0,0,0);stroke-width:1;stroke-linecap:round"></path><path d="M358.3688853778573,67.67479943309837L443.6688318361439,67.119480129834L443.6688318361439,4.93812050760959z" style="fill:rgb(238,238,238); fill-opacity: 0.36"></path><path d="M93.98614029152112,-31.22158614670992L93.98614029152112,-25.193695126813505M93.98614029152112,-25.193695126813505L20.871902386228722,-24.717707165061075M93.98614029152112,-25.193695126813505L94.06660902908958,-17.64892030111444M93.98614119167506,-31.22158613761769L93.98614119167506,-25.193695640985467M93.98614119167506,-25.193695640985467L94.06660992837035,-17.64892089715398M93.98614119167506,-25.193695640985467L129.19203502131896,-20.803019543676324M20.871902386228722,-30.745598184957494L20.871902386228722,-24.717707165061075M20.871902386228722,-24.717707165061075L20.95237112379717,-17.17293233936201M550.2334866521137,-3.892087425180895L574.6049004049339,-4.050750086374964" style="fill:none;stroke:rgb(0,0,0);stroke-width:1;stroke-linecap:round"></path><path d="M-75.1293061717672,-13.818084633705418L-75.20977490933565,-21.36285945940448L-14.281238850700973,-21.75951612330454zM-14.281238850700973,-21.75951612330454L-75.20977490933565,-21.36285945940448L-75.20977490933565,-27.390750479300895zM20.952371123797185,-17.172932339362013L20.871902386228733,-24.717707165061075L93.98614029152114,-25.193695126813505zM-14.200770113132519,-14.214741297605482L-75.1293061717672,-13.818084633705418L-14.281238850700973,-21.75951612330454z" style="fill:rgb(153,221,255); fill-opacity: 0.4"></path><path d="M-14.200771035861756,-14.214741414121914L-14.281239771977443,-21.759516103609393L20.919667251807322,-21.095697467174492z" style="fill:rgb(255,187,187); fill-opacity: 0.4"></path><path d="M93.98614119167506,-31.22158613761769L129.19203502131896,-20.803019543676324M94.06660992837035,-17.64892089715398L129.19203502131896,-20.803019543676324M94.06660992837035,-23.676811393786203L129.19203502131896,-20.803019543676324" style="fill:none;stroke:rgb(0,0,0);stroke-width:1;stroke-linecap:round"></path><path d="M93.98614029152114,-25.193695126813505L20.871902386228733,-24.717707165061075L20.871902386228733,-30.745598184957498z" style="fill:rgb(153,221,255); fill-opacity: 0.4"></path><path d="M490.7015553022307,-27.90203833416231L490.7015553022307,40.55512598786485L515.0729690550509,-28.06070099535638z" style="fill:rgb(238,238,238); fill-opacity: 0.36"></path><path d="M94.06661060449437,-17.648920433894222L93.98614186837868,-25.193695123381698L129.19203569744755,-20.80301953861945z" style="fill:rgb(255,187,187); fill-opacity: 0.4"></path><path d="M-14.200770113132519,-14.214741297605482L-14.281238850700973,-21.75951612330454L-14.281238850700973,-27.78740714320096z" style="fill:rgb(153,221,255); fill-opacity: 0.4"></path><path d="M-14.281239771977447,-27.787407014679687L-14.281239771977443,-21.759516103609393L-14.200771035861756,-14.214741414121914zM-14.281239771977443,-21.759516103609393L-14.281239771977447,-27.787407014679687L20.919667251807322,-21.095697467174492zM93.98614186837868,-25.193695123381698L93.98614186837868,-31.221586034451995L129.19203569744755,-20.80301953861945z" style="fill:rgb(255,187,187); fill-opacity: 0.4"></path><path d="M-14.281238850700973,-27.78740714320096L-14.281238850700973,-21.75951612330454L-75.20977490933565,-27.390750479300895zM94.06660902908959,-17.648920301114444L20.952371123797185,-17.172932339362013L93.98614029152114,-25.193695126813505zM94.06660902908959,-17.648920301114444L93.98614029152114,-25.193695126813505L93.98614029152114,-31.221586146709924z" style="fill:rgb(153,221,255); fill-opacity: 0.4"></path><path d="M93.98614186837868,-31.221586034451995L93.98614186837868,-25.193695123381698L94.06661060449437,-17.648920433894222z" style="fill:rgb(255,187,187); fill-opacity: 0.4"></path><path d="M238.00996006729005,85.58582010840824L323.3099065255767,85.0305008051439L323.3099065255767,7.636436139751857zM443.6688318361439,4.93812050760959L443.6688318361439,67.119480129834L442.83874789922885,-72.89081753340375z" style="fill:rgb(238,238,238); fill-opacity: 0.36"></path><path d="M-75.12930617176721,-13.81808463370542L-14.200770113132519,-14.214741297605483M-14.200770113132519,-20.2426323175019L-14.200770113132519,-14.214741297605483M-14.200770237154886,-14.214741946851243L-14.200770237154886,-20.242632443483462M-14.200770237154886,-14.214741946851243L20.919668050619034,-21.09569842115922M-75.12930617176721,-19.845975653601837L-75.12930617176721,-13.81808463370542M-14.281238972977022,-27.787407105447375L20.919668050619034,-21.09569842115922M-14.200770237154886,-20.242632443483462L20.919668050619034,-21.09569842115922" style="fill:none;stroke:rgb(0,0,0);stroke-width:1;stroke-linecap:round"></path><path d="M93.98614029152114,-31.221586146709924L93.98614029152114,-25.193695126813505L20.871902386228733,-30.745598184957498zM-75.20977490933565,-21.36285945940448L-75.1293061717672,-13.818084633705418L-75.1293061717672,-19.845975653601833z" style="fill:rgb(153,221,255); fill-opacity: 0.4"></path><path d="M129.74357540855814,87.70301928571654L202.85781331385053,87.2270313239641L202.8578133138505,8.578497264571077z" style="fill:rgb(238,238,238); fill-opacity: 0.36"></path><path d="M-75.20977490933565,-27.390750479300895L-75.20977490933565,-21.36285945940448L-75.1293061717672,-19.845975653601833z" style="fill:rgb(153,221,255); fill-opacity: 0.4"></path><path d="M20.95237112379717,-17.17293233936201L94.06660902908958,-17.64892030111444M94.06660902908958,-23.676811321010856L94.06660902908958,-17.64892030111444M94.06660992837035,-17.64892089715398L94.06660992837035,-23.676811393786203M-14.281238850700966,-27.787407143200966L-75.20977490933564,-27.3907504793009M-14.281238850700966,-27.787407143200966L-14.200770113132519,-20.2426323175019M-14.281238972977022,-27.787407105447375L-14.200770237154886,-20.242632443483462M20.95237112379717,-23.20082335925843L20.95237112379717,-17.17293233936201M-75.20977490933564,-27.3907504793009L-75.12930617176721,-19.845975653601837" style="fill:none;stroke:rgb(0,0,0);stroke-width:1;stroke-linecap:round"></path><path d="M20.871902386228733,-24.717707165061075L20.952371123797185,-17.172932339362013L20.952371123797185,-23.200823359258433zM-75.1293061717672,-13.818084633705418L-14.200770113132519,-14.214741297605482L-14.200770113132522,-20.242632317501897z" style="fill:rgb(153,221,255); fill-opacity: 0.4"></path><path d="M-14.200771035861756,-20.24263232519221L-14.200771035861756,-14.214741414121914L20.919667251807322,-21.095697467174492z" style="fill:rgb(255,187,187); fill-opacity: 0.4"></path><path d="M20.871902386228733,-30.745598184957498L20.871902386228733,-24.717707165061075L20.952371123797185,-23.200823359258433z" style="fill:rgb(153,221,255); fill-opacity: 0.4"></path><path d="M94.06661060449437,-23.676811344964516L94.06661060449437,-17.648920433894222L129.19203569744755,-20.80301953861945z" style="fill:rgb(255,187,187); fill-opacity: 0.4"></path><path d="M93.98614029152112,-31.22158614670992L20.871902386228722,-30.745598184957494M93.98614029152112,-31.22158614670992L94.06660902908958,-23.676811321010856M93.98614119167506,-31.22158613761769L94.06660992837035,-23.676811393786203" style="fill:none;stroke:rgb(0,0,0);stroke-width:1;stroke-linecap:round"></path><path d="M-14.281239771977447,-27.787407014679687L-14.200771035861756,-14.214741414121914L-14.200771035861756,-20.24263232519221z" style="fill:rgb(255,187,187); fill-opacity: 0.4"></path><path d="M-14.200770113132522,-20.242632317501897L-14.200770113132519,-14.214741297605482L-14.281238850700973,-27.78740714320096z" style="fill:rgb(153,221,255); fill-opacity: 0.4"></path><path d="M-14.281239771977447,-27.787407014679687L-14.200771035861756,-20.24263232519221L20.919667251807322,-21.095697467174492z" style="fill:rgb(255,187,187); fill-opacity: 0.4"></path><path d="M20.871902386228722,-30.745598184957494L20.95237112379717,-23.20082335925843" style="fill:none;stroke:rgb(0,0,0);stroke-width:1;stroke-linecap:round"></path><path d="M93.98614186837868,-31.221586034451995L94.06661060449437,-23.676811344964516L129.19203569744755,-20.80301953861945z" style="fill:rgb(255,187,187); fill-opacity: 0.4"></path><path d="M-14.200770113132522,-20.242632317501897L-14.281238850700973,-27.78740714320096L-75.20977490933565,-27.390750479300895zM20.952371123797185,-17.172932339362013L94.06660902908959,-17.648920301114444L94.06660902908959,-23.67681132101086z" style="fill:rgb(153,221,255); fill-opacity: 0.4"></path><path d="M93.98614186837868,-31.221586034451995L94.06661060449437,-17.648920433894222L94.06661060449437,-23.676811344964516z" style="fill:rgb(255,187,187); fill-opacity: 0.4"></path><path d="M94.06660902908959,-23.67681132101086L94.06660902908959,-17.648920301114444L93.98614029152114,-31.221586146709924zM94.06660902908959,-23.67681132101086L93.98614029152114,-31.221586146709924L20.871902386228733,-30.745598184957498zM-75.1293061717672,-19.845975653601833L-75.1293061717672,-13.818084633705418L-14.200770113132522,-20.242632317501897z" style="fill:rgb(153,221,255); fill-opacity: 0.4"></path><path d="M443.6688318361439,4.93812050760959L442.83874789922885,-72.89081753340375L357.5388014409422,-72.33549823013938z" style="fill:rgb(238,238,238); fill-opacity: 0.36"></path><path d="M-75.1293061717672,-19.845975653601833L-14.200770113132522,-20.242632317501897L-75.20977490933565,-27.390750479300895z" style="fill:rgb(153,221,255); fill-opacity: 0.4"></path><path d="M21.570356940916774,105.53470863064737L94.68459484620917,105.05872066889494L94.68459484620915,11.1974815663343zM323.3099065255767,7.636436139751857L323.3099065255767,85.0305008051439L322.27674208077184,-89.23339591570709zM-74.51468375915921,106.8372541782954L-13.58614770052453,106.44059751439534L-13.586147700524542,11.978031571636835z" style="fill:rgb(238,238,238); fill-opacity: 0.36"></path><path d="M20.952371123797185,-23.200823359258433L20.952371123797185,-17.172932339362013L94.06660902908959,-23.67681132101086zM20.952371123797185,-23.200823359258433L94.06660902908959,-23.67681132101086L20.871902386228733,-30.745598184957498z" style="fill:rgb(153,221,255); fill-opacity: 0.4"></path><path d="M202.8578133138505,8.578497264571077L202.85781331385053,87.2270313239641L201.80790245340538,-89.8614841303879z" style="fill:rgb(238,238,238); fill-opacity: 0.36"></path><path d="M-75.12930617176721,-19.845975653601837L-14.200770113132519,-20.2426323175019M20.95237112379717,-23.20082335925843L94.06660902908958,-23.676811321010856M514.8698885751022,-47.10159239003962L490.498474822282,-46.942929728845556M514.8698885751022,-47.10159239003962L515.0729690550509,-28.06070099535638" style="fill:none;stroke:rgb(0,0,0);stroke-width:1;stroke-linecap:round"></path><path d="M-170.50219538387478,124.5896121928472L-109.57365932524011,124.19295552894712L-109.57365932524013,14.517684543021012z" style="fill:rgb(238,238,238); fill-opacity: 0.36"></path><path d="M490.498474822282,-46.942929728845556L490.7015553022307,-27.90203833416231" style="fill:none;stroke:rgb(0,0,0);stroke-width:1;stroke-linecap:round"></path><path d="M-266.58928088282414,125.54684003927908L-205.6607448241895,125.15018337537902L-205.66074482418952,15.180310461784128zM323.3099065255767,7.636436139751857L322.27674208077184,-89.23339591570709L236.9767956224852,-88.67807661244275zM94.68459484620915,11.1974815663343L94.68459484620917,105.05872066889494L93.43160347787425,-106.2833938430703zM202.8578133138505,8.578497264571077L201.80790245340538,-89.8614841303879L128.693664548113,-89.38549616863547zM-13.586147700524542,11.978031571636835L-13.58614770052453,106.44059751439534L-14.84716642229651,-106.25549108884894zM515.0729690550509,-28.06070099535638L514.8698885751022,-47.10159239003963L490.498474822282,-46.942929728845556zM-109.57365932524013,14.517684543021012L-109.57365932524011,124.19295552894712L-111.0377585549019,-122.7567321319104zM358.3688853778572,5.493439810873942L358.3688853778573,67.67479943309837L443.6688318361439,4.93812050760959zM-205.66074482418952,15.180310461784128L-205.6607448241895,125.15018337537902L-207.12877681327353,-122.46284300685194zM94.68459484620915,11.1974815663343L93.43160347787425,-106.2833938430703L20.31736557258185,-105.80740588131788zM490.7015553022307,-27.90203833416231L515.0729690550509,-28.06070099535638L490.498474822282,-46.942929728845556zM-13.586147700524542,11.978031571636835L-14.84716642229651,-106.25549108884894L-75.77570248093119,-105.85883442494888zM358.3688853778572,5.493439810873942L443.6688318361439,4.93812050760959L357.5388014409422,-72.33549823013938z" style="fill:rgb(238,238,238); fill-opacity: 0.36"></path><path d="M-205.84875119928444,42.04753103181674L-205.84875119928444,48.07542152844896M-205.84875119928444,48.07542152844896L-205.76828246870127,55.620195699207436M-205.84875119928444,48.07542152844896L-170.64956965285927,48.477741008203175M-205.84874905415714,42.04753182837959L-205.84874905415714,48.075422848276006M-205.84874905415714,48.075422848276006L-266.77728511279184,48.47207951217607M-205.84874905415714,48.075422848276006L-205.7682803165887,55.62019767397507M490.7015553022307,-27.90203833416231L515.0729690550509,-28.06070099535638M-266.77728511279184,42.44418849227965L-266.77728511279184,48.47207951217607M-266.77728511279184,48.47207951217607L-266.69681637522336,56.01685433787514M202.5697217818662,-10.124602424960191L202.5697217818662,-4.096711405063774M202.5697217818662,-4.096711405063774L129.4554838765738,-3.620723443311345M202.5697217818662,-4.096711405063774L202.65019051943466,3.44806342063529M202.56971952925048,-10.12460195632135L202.56971952925048,-4.096711459689126M202.56971952925048,-4.096711459689126L202.65018825983367,3.4480627110693423M202.56971952925048,-4.096711459689126L237.76605175861562,-3.534933849134092M129.4554838765738,-9.648614463207762L129.4554838765738,-3.620723443311345M129.4554838765738,-3.620723443311345L129.53595261414225,3.924051382387718" style="fill:none;stroke:rgb(0,0,0);stroke-width:1;stroke-linecap:round"></path><path d="M-266.69681637522336,56.01685433787513L-266.77728511279184,48.472079512176066L-205.84874905415717,48.075422848276zM129.53595261414225,3.9240513823877152L129.4554838765738,-3.6207234433113493L202.56972178186618,-4.096711405063778zM-205.84874905415717,48.075422848276L-266.77728511279184,48.472079512176066L-266.77728511279184,42.44418849227965zM202.56972178186618,-4.096711405063778L129.4554838765738,-3.6207234433113493L129.4554838765738,-9.648614463207767z" style="fill:rgb(153,221,255); fill-opacity: 0.4"></path><path d="M-109.57365932524013,14.517684543021012L-111.0377585549019,-122.7567321319104L-171.96629461353658,-122.36007546801032zM-205.66074482418952,15.180310461784128L-207.12877681327353,-122.46284300685194L-268.05731287190815,-122.06618634295188z" style="fill:rgb(238,238,238); fill-opacity: 0.36"></path><path d="M-205.76828031658872,55.62019767397506L-266.69681637522336,56.01685433787513L-205.84874905415717,48.075422848276z" style="fill:rgb(153,221,255); fill-opacity: 0.4"></path><path d="M-205.76828123931796,55.62019755745864L-205.84874997543363,48.075422867971156L-170.64956844155577,48.47774116204933zM202.65019209483944,3.4480632878555126L202.56972335872373,-4.096711401631967L237.76605557395354,-3.534934983128005z" style="fill:rgb(255,187,187); fill-opacity: 0.4"></path><path d="M-205.76828031658872,55.62019767397506L-205.84874905415717,48.075422848276L-205.84874905415717,42.04753182837959z" style="fill:rgb(153,221,255); fill-opacity: 0.4"></path><path d="M-205.84874997543363,42.04753195690086L-205.84874997543363,48.075422867971156L-205.76828123931796,55.62019755745864z" style="fill:rgb(255,187,187); fill-opacity: 0.4"></path><path d="M202.65019051943463,3.4480634206352874L129.53595261414225,3.9240513823877152L202.56972178186618,-4.096711405063778z" style="fill:rgb(153,221,255); fill-opacity: 0.4"></path><path d="M-205.84874997543363,48.075422867971156L-205.84874997543363,42.04753195690086L-170.64956844155577,48.47774116204933zM202.56972335872373,-4.096711401631967L202.56972335872373,-10.12460231270226L237.76605557395354,-3.534934983128005z" style="fill:rgb(255,187,187); fill-opacity: 0.4"></path><path d="M202.65019051943463,3.4480634206352874L202.56972178186618,-4.096711405063778L202.56972178186618,-10.124602424960196z" style="fill:rgb(153,221,255); fill-opacity: 0.4"></path><path d="M202.56972335872373,-10.12460231270226L202.56972335872373,-4.096711401631967L202.65019209483944,3.4480632878555126z" style="fill:rgb(255,187,187); fill-opacity: 0.4"></path><path d="M-205.84874905415717,42.04753182837959L-205.84874905415717,48.075422848276L-266.77728511279184,42.44418849227965zM202.56972178186618,-10.124602424960196L202.56972178186618,-4.096711405063778L129.4554838765738,-9.648614463207767z" style="fill:rgb(153,221,255); fill-opacity: 0.4"></path><path d="M238.00996006729005,8.19175544301621L238.00996006729005,85.58582010840824L323.3099065255767,7.636436139751857z" style="fill:rgb(238,238,238); fill-opacity: 0.36"></path><path d="M-205.76828246870127,55.620195699207436L-205.76828246870127,49.59230520257521M-205.76828246870127,55.620195699207436L-170.64956965285927,48.477741008203175M-266.69681637522336,56.01685433787514L-205.7682803165887,55.62019767397507M-205.7682803165887,49.59230665407865L-205.7682803165887,55.62019767397507M202.56971952925048,-10.12460195632135L237.76605175861562,-3.534933849134092M202.65018825983367,3.4480627110693423L237.76605175861562,-3.534933849134092M202.65018825983367,-2.5798277855628813L237.76605175861562,-3.534933849134092M-266.69681637522336,49.988963317978715L-266.69681637522336,56.01685433787514M202.65018825983367,3.4480627110693423L202.65018825983367,-2.5798277855628813M129.53595261414225,3.924051382387718L202.65019051943466,3.44806342063529M202.65019051943466,-2.579827599261127L202.65019051943466,3.44806342063529M-205.84875119928444,42.04753103181674L-170.64956965285927,48.477741008203175M-205.76828246870127,49.59230520257521L-170.64956965285927,48.477741008203175M129.53595261414225,-2.103839637508699L129.53595261414225,3.924051382387718" style="fill:none;stroke:rgb(0,0,0);stroke-width:1;stroke-linecap:round"></path><path d="M-266.77728511279184,48.472079512176066L-266.69681637522336,56.01685433787513L-266.69681637522336,49.988963317978715zM129.4554838765738,-3.6207234433113493L129.53595261414225,3.9240513823877152L129.53595261414225,-2.1038396375087016zM-266.77728511279184,42.44418849227965L-266.77728511279184,48.472079512176066L-266.69681637522336,49.988963317978715z" style="fill:rgb(153,221,255); fill-opacity: 0.4"></path><path d="M129.74357540855812,9.054485226323505L129.74357540855814,87.70301928571654L202.8578133138505,8.578497264571077z" style="fill:rgb(238,238,238); fill-opacity: 0.36"></path><path d="M-205.84875119928444,42.04753103181674L-205.76828246870127,49.59230520257521M-205.84874905415714,42.04753182837959L-266.77728511279184,42.44418849227965M-205.84874905415714,42.04753182837959L-205.7682803165887,49.59230665407865" style="fill:none;stroke:rgb(0,0,0);stroke-width:1;stroke-linecap:round"></path><path d="M129.4554838765738,-9.648614463207767L129.4554838765738,-3.6207234433113493L129.53595261414225,-2.1038396375087016z" style="fill:rgb(153,221,255); fill-opacity: 0.4"></path><path d="M-266.77728511279184,42.44418849227965L-266.69681637522336,49.988963317978715M202.56971952925048,-10.12460195632135L202.65018825983367,-2.5798277855628813M202.5697217818662,-10.124602424960191L129.4554838765738,-9.648614463207762M202.5697217818662,-10.124602424960191L202.65019051943466,-2.579827599261127M129.4554838765738,-9.648614463207762L129.53595261414225,-2.103839637508699" style="fill:none;stroke:rgb(0,0,0);stroke-width:1;stroke-linecap:round"></path><path d="M-266.69681637522336,56.01685433787513L-205.76828031658872,55.62019767397506L-205.76828031658872,49.59230665407865z" style="fill:rgb(153,221,255); fill-opacity: 0.4"></path><path d="M-205.76828123931796,49.592306646388344L-205.76828123931796,55.62019755745864L-170.64956844155577,48.47774116204933zM202.65019209483944,-2.5798276232147814L202.65019209483944,3.4480632878555126L237.76605557395354,-3.534934983128005zM-205.84874997543363,42.04753195690086L-205.76828123931796,55.62019755745864L-205.76828123931796,49.592306646388344z" style="fill:rgb(255,187,187); fill-opacity: 0.4"></path><path d="M-205.76828031658872,49.59230665407865L-205.76828031658872,55.62019767397506L-205.84874905415717,42.04753182837959zM129.53595261414225,3.9240513823877152L202.65019051943463,3.4480634206352874L202.65019051943463,-2.5798275992611295z" style="fill:rgb(153,221,255); fill-opacity: 0.4"></path><path d="M-205.84874997543363,42.04753195690086L-205.76828123931796,49.592306646388344L-170.64956844155577,48.47774116204933zM202.56972335872373,-10.12460231270226L202.65019209483944,-2.5798276232147814L237.76605557395354,-3.534934983128005zM202.56972335872373,-10.12460231270226L202.65019209483944,3.4480632878555126L202.65019209483944,-2.5798276232147814z" style="fill:rgb(255,187,187); fill-opacity: 0.4"></path><path d="M202.65019051943463,-2.5798275992611295L202.65019051943463,3.4480634206352874L202.56972178186618,-10.124602424960196zM-205.76828031658872,49.59230665407865L-205.84874905415717,42.04753182837959L-266.77728511279184,42.44418849227965zM202.65019051943463,-2.5798275992611295L202.56972178186618,-10.124602424960196L129.4554838765738,-9.648614463207767zM-266.69681637522336,49.988963317978715L-266.69681637522336,56.01685433787513L-205.76828031658872,49.59230665407865zM129.53595261414225,-2.1038396375087016L129.53595261414225,3.9240513823877152L202.65019051943463,-2.5798275992611295zM-266.69681637522336,49.988963317978715L-205.76828031658872,49.59230665407865L-266.77728511279184,42.44418849227965zM129.53595261414225,-2.1038396375087016L202.65019051943463,-2.5798275992611295L129.4554838765738,-9.648614463207767z" style="fill:rgb(153,221,255); fill-opacity: 0.4"></path><path d="M238.00996006729005,8.19175544301621L323.3099065255767,7.636436139751857L236.9767956224852,-88.67807661244275z" style="fill:rgb(238,238,238); fill-opacity: 0.36"></path><path d="M-266.69681637522336,49.988963317978715L-205.7682803165887,49.59230665407865" style="fill:none;stroke:rgb(0,0,0);stroke-width:1;stroke-linecap:round"></path><path d="M129.74357540855812,9.054485226323505L202.8578133138505,8.578497264571077L128.693664548113,-89.38549616863547z" style="fill:rgb(238,238,238); fill-opacity: 0.36"></path><path d="M129.53595261414225,-2.103839637508699L202.65019051943466,-2.579827599261127" style="fill:none;stroke:rgb(0,0,0);stroke-width:1;stroke-linecap:round"></path><path d="M21.57035694091676,11.673469528086727L21.570356940916774,105.53470863064737L94.68459484620915,11.1974815663343zM-74.51468375915923,12.3746882355369L-74.51468375915921,106.8372541782954L-13.586147700524542,11.978031571636835z" style="fill:rgb(238,238,238); fill-opacity: 0.36"></path><path d="M358.3688853778573,5.4934398108739435L443.6688318361439,4.93812050760959" style="fill:none;stroke:rgb(0,0,0);stroke-width:1;stroke-linecap:round"></path><path d="M21.57035694091676,11.673469528086727L94.68459484620915,11.1974815663343L20.31736557258185,-105.80740588131788zM-74.51468375915923,12.3746882355369L-13.586147700524542,11.978031571636835L-75.77570248093119,-105.85883442494888zM-170.5021953838748,14.914341206921076L-170.50219538387478,124.5896121928472L-109.57365932524013,14.517684543021012zM-266.58928088282414,15.576967125684192L-266.58928088282414,125.54684003927908L-205.66074482418952,15.180310461784128z" style="fill:rgb(238,238,238); fill-opacity: 0.36"></path><path d="M238.00996006729005,8.191755443016211L323.3099065255767,7.636436139751857M129.74357540855814,9.054485226323507L202.85781331385053,8.578497264571078" style="fill:none;stroke:rgb(0,0,0);stroke-width:1;stroke-linecap:round"></path><path d="M-170.5021953838748,14.914341206921076L-109.57365932524013,14.517684543021012L-171.96629461353658,-122.36007546801032zM-266.58928088282414,15.576967125684192L-205.66074482418952,15.180310461784128L-268.05731287190815,-122.06618634295188z" style="fill:rgb(238,238,238); fill-opacity: 0.36"></path><path d="M21.570356940916753,11.673469528086727L94.68459484620915,11.1974815663343M-74.51468375915923,12.3746882355369L-13.586147700524538,11.978031571636837M-170.50219538387483,14.914341206921076L-109.57365932524014,14.517684543021014M-266.58928088282414,15.576967125684192L-205.66074482418946,15.18031046178413" style="fill:none;stroke:rgb(0,0,0);stroke-width:1;stroke-linecap:round"></path></svg>